<svg width="600" height="400" viewBox="0 0 600 400" fill="none" xmlns="http://www.w3.org/2000/svg">
  <!-- Background elements -->
  <circle cx="300" cy="200" r="150" fill="#E6EFFF" />
  <path d="M150 350C150 322.386 172.386 300 200 300H400C427.614 300 450 322.386 450 350V400H150V350Z" fill="#D1E3FF" />
  
  <!-- Sponsor icon -->
  <rect x="200" y="120" width="80" height="80" rx="10" fill="#4361EE" />
  <path d="M235 160C235 149.507 243.507 141 254 141V141C264.493 141 273 149.507 273 160V180H235V160Z" fill="white" />
  <circle cx="254" cy="150" r="10" fill="white" />
  <rect x="225" y="180" width="58" height="10" rx="5" fill="white" />
  
  <!-- Influencer icon -->
  <circle cx="350" cy="160" r="40" fill="#7209B7" />
  <path d="M350 130L358.612 147.725H378.042L362.715 158.549L371.327 176.275L350 165.451L328.673 176.275L337.285 158.549L321.958 147.725H341.388L350 130Z" fill="white" />
  
  <!-- Connection between them -->
  <line x1="290" y1="160" x2="310" y2="160" stroke="#4361EE" stroke-width="3" stroke-dasharray="5 5" />
  
  <!-- Dollar signs (representing monetization) -->
  <text x="260" y="100" font-family="Arial" font-size="16" font-weight="bold" fill="#4361EE">$</text>
  <text x="280" y="80" font-family="Arial" font-size="20" font-weight="bold" fill="#4361EE">$</text>
  <text x="310" y="90" font-family="Arial" font-size="18" font-weight="bold" fill="#7209B7">$</text>
  <text x="330" y="110" font-family="Arial" font-size="24" font-weight="bold" fill="#7209B7">$</text>
  
  <!-- Like/heart icons (representing social media) -->
  <path d="M370 220C376.627 220 382 214.627 382 208C382 201.373 376.627 196 370 196C363.373 196 358 201.373 358 208C358 214.627 363.373 220 370 220Z" fill="#FF5D8F" />
  <path d="M370 202C372.761 202 375 204.239 375 207C375 209.761 372.761 212 370 212C367.239 212 365 209.761 365 207C365 204.239 367.239 202 370 202Z" fill="white" />
  
  <path d="M230 230C236.627 230 242 224.627 242 218C242 211.373 236.627 206 230 206C223.373 206 218 211.373 218 218C218 224.627 223.373 230 230 230Z" fill="#FF5D8F" />
  <path d="M230 212C232.761 212 235 214.239 235 217C235 219.761 232.761 222 230 222C227.239 222 225 219.761 225 217C225 214.239 227.239 212 230 212Z" fill="white" />
  
  <!-- Platform label -->
  <rect x="250" y="240" width="100" height="30" rx="15" fill="#4361EE" />
  <text x="300" y="260" font-family="Arial" font-size="14" font-weight="bold" fill="white" text-anchor="middle">SPONNECT</text>
  
  <!-- Decorative elements -->
  <circle cx="170" cy="140" r="5" fill="#7209B7" />
  <circle cx="430" cy="130" r="3" fill="#4361EE" />
  <circle cx="190" cy="230" r="4" fill="#7209B7" />
  <circle cx="410" cy="220" r="6" fill="#4361EE" />
</svg> 